<svg width="524" height="1482" viewBox="0 0 524 1482" fill="none" xmlns="http://www.w3.org/2000/svg">
<path class="line1" fill-rule="evenodd" clip-rule="evenodd" d="M440.451 0C445.652 2.90396 451.079 5.49373 456.708 7.73471C478.432 16.3809 501.109 19.7384 524 20.7253V23C500.873 22.0149 477.938 18.6024 455.905 9.83812C448.949 7.06463 442.303 3.75863 436 0H440.451Z" fill="#580A88"/>
<path class="line2" fill-rule="evenodd" clip-rule="evenodd" d="M362.936 0C385.812 25.98 416.5 46.0619 451.575 57.0601C475.144 64.4507 499.481 68.0487 524 69.7845V72C499.289 70.2642 474.728 66.6339 450.924 59.1692C414.803 47.8386 383.271 26.9918 360 0H362.936Z" fill="#580A88"/>
<path class="line3" fill-rule="evenodd" clip-rule="evenodd" d="M311.692 0C312.332 0.90576 312.94 1.81239 313.591 2.71815C348.531 51.2737 400.018 85.0838 462.467 100.492C482.836 105.512 503.738 109.032 524 111.772V114C503.578 111.259 482.496 107.709 461.945 102.645C398.97 87.1102 347.057 53.0005 311.807 4.0091C310.848 2.6771 309.93 1.34335 309 0H311.692Z" fill="#580A88"/>
<path class="line4" d="M189.444 1045.63C186.636 1058.06 184.285 1070.94 182.012 1083.42C170.841 1165.9 193.659 1189.1 221 1226.5C256.778 1280.16 293 1315 349 1338.5C399.354 1362.32 418 1394.5 446.5 1421C475 1447.5 512.948 1459.45 526.5 1481.5L531.5 1475.5C517.948 1453.45 487.5 1446.02 451.5 1415C419 1387 404.354 1356.82 354 1333C293.156 1302.9 265.278 1280.16 229.5 1226.5C204.414 1188.11 179.5 1167.5 190.67 1085.02L190.863 1083.96C193.068 1071.92 195.341 1059.51 198.029 1047.6C204.83 1017.46 213.211 987.224 223.664 955.175C226.918 945.191 229.982 934.786 232.941 924.736L233.008 924.508C239.286 903.13 245.787 881.029 254.683 860.932C264.195 839.427 280.907 827.918 310.559 822.43C338.682 817.219 368.525 810.897 396.97 796.228C441.112 773.461 474.383 732.696 498.663 671.62C507.707 648.878 516.034 625.568 524 602.386V575C513.547 606.049 502.656 637.74 490.495 668.331C466.706 728.148 435.709 766.287 392.955 788.347C365.579 802.463 336.45 808.614 308.967 813.696C287.143 817.752 260.342 826.36 246.632 857.323C237.513 877.953 230.926 900.331 224.561 921.989C221.604 932.065 218.538 942.466 215.304 952.42C204.766 984.731 196.308 1015.22 189.444 1045.63Z" fill="#580A88"/>
<path class="line5" fill-rule="evenodd" clip-rule="evenodd" d="M524 163C519.273 161.665 514.557 160.349 509.904 159.057C460.293 145.221 408.996 130.916 364.358 103.257C322.121 77.0739 290.001 41.2477 259 0H261.764C292.315 40.4989 324.031 75.6525 365.509 101.365C409.881 128.864 461.03 143.125 510.49 156.918C514.939 158.157 519.466 159.42 524 160.693V163Z" fill="#580A88"/>
<path class="line6" fill-rule="evenodd" clip-rule="evenodd" d="M6.54285 53.0506C10.8652 34.8784 17.7162 16.975 26.5505 0H29.0136C20.0194 17.1132 13.053 35.2005 8.67822 53.573C-4.39355 108.451 2.13843 166.982 29.8458 243.353C54.4186 311.062 82.3952 371.217 113.008 422.151C138.157 463.996 169.226 497.87 202.122 533.733C210.626 543.016 219.428 552.61 228.041 562.277C236.98 572.298 245.88 582.649 254.49 592.66C266.537 606.675 278.999 621.149 291.717 634.964C294.182 637.622 296.691 640.422 299.26 643.284C315.511 661.36 333.928 681.838 355.759 689.593C361.732 691.71 367.836 692.799 373.917 692.799H373.928C417.335 692.777 452.844 638.318 466.095 614.902C489.985 572.683 507.611 526.767 524 481.526V487.967C508.156 531.446 490.977 575.396 468.005 616.002C451.306 645.507 416.876 695 373.928 695H373.917C367.591 695 361.232 693.889 355.032 691.688C332.667 683.741 314.06 663.038 297.639 644.77C295.066 641.916 292.561 639.129 290.106 636.469C277.356 622.635 264.893 608.139 252.825 594.123C244.226 584.112 235.328 573.772 226.406 563.752C217.807 554.105 209.005 544.512 200.501 535.24C167.53 499.292 136.385 465.341 111.13 423.304C80.4442 372.242 52.4039 311.959 27.7768 244.111C-0.0817261 167.315 -6.63379 108.388 6.54285 53.0506Z" fill="#580A88"/>
<path class="line7" fill-rule="evenodd" clip-rule="evenodd" d="M524 235C522.503 233.162 520.901 231.358 519.147 229.606C498.258 208.777 471.008 196.163 444.656 183.966C441.011 182.266 437.355 180.579 433.731 178.87C388.135 157.399 329.038 126.692 276.303 79.4793C267.227 71.3504 258.321 62.2722 248.905 52.6584C229.778 33.1648 210.236 13.246 188 0H192.245C213.412 13.3308 232.129 32.4062 250.464 51.1096C259.86 60.691 268.745 69.7387 277.767 77.8238C330.3 124.854 389.214 155.455 434.671 176.862C438.285 178.571 441.931 180.257 445.587 181.946C472.109 194.23 499.53 206.93 520.697 228.035C521.861 229.191 522.952 230.376 524 231.581V235Z" fill="#580A88"/>
<path class="line8" fill-rule="evenodd" clip-rule="evenodd" d="M39.8345 64.1623C47.9415 40.0298 63.6332 15.7791 85.0161 0H88.8408C66.5488 15.3941 50.2166 40.1891 41.9179 64.8668C27.0811 108.979 29.2275 160.31 48.4648 221.802C66.3782 279.02 94.5232 339.722 129.878 397.336C161.014 448.082 200.47 487.544 250.13 531.185C252.34 533.13 254.625 535.16 256.997 537.254C288.668 565.33 332.045 603.788 374.31 603.788H374.322C381.009 603.788 387.523 602.784 393.677 600.816C435.761 587.335 460.008 544.828 479.95 500.889C498.931 459.062 512.292 414.804 524 370.724V379.229C512.774 420.764 499.861 462.343 481.947 501.817C461.802 546.205 437.247 589.184 394.34 602.933C387.972 604.963 381.243 606 374.322 606C374.31 606 374.31 606 374.31 606C331.211 606 287.472 567.23 255.544 538.919C253.173 536.825 250.887 534.797 248.688 532.863C198.869 489.083 159.283 449.48 128.008 398.502C92.557 340.736 64.3263 279.866 46.3709 222.466C26.9743 160.513 24.8375 108.721 39.8345 64.1623Z" fill="#580A88"/>
<path class="line9" fill-rule="evenodd" clip-rule="evenodd" d="M141.494 59.4597C166.809 59.4597 196.909 73.0407 230.957 99.8195C281.683 139.719 335.689 174.293 386.491 205.714C389.545 207.605 392.641 209.496 395.747 211.385C415.778 223.567 436.48 236.177 452.005 253.763C473.786 278.448 479.22 310.458 479.936 332.966C480.127 339.189 480.075 345.992 479.754 353.763C470.635 411.644 456.424 470.689 414.645 509.574C399.623 523.54 381.994 530.63 362.253 530.63H362.242C325.865 530.63 288.497 507.055 263.542 489.319C179.909 429.892 115.942 333.926 83.4311 219.126C72.028 178.852 60.4343 121.045 91.2681 84.1358C104.957 67.7664 121.849 59.4597 141.494 59.4597ZM362.242 532.84H362.253C382.572 532.84 400.702 525.559 416.131 511.196C458.412 471.852 472.75 412.382 481.942 353.977C482.275 346.022 482.327 339.168 482.135 332.889C481.398 310.018 475.868 277.466 453.649 252.289C437.912 234.459 417.049 221.763 396.879 209.484C393.783 207.595 390.697 205.714 387.643 203.826C336.895 172.434 282.954 137.904 232.302 98.0701C197.868 70.9808 167.312 57.2397 141.494 57.2397C121.176 57.2397 103.708 65.8141 89.5826 82.7039C58.0745 120.427 69.7758 178.97 81.317 219.734C113.957 335.015 178.223 431.407 262.272 491.134C287.46 509.04 325.247 532.84 362.242 532.84Z" fill="#580A88"/>
<path class="line10" fill-rule="evenodd" clip-rule="evenodd" d="M426.593 375.696C422.364 401.756 410.044 447.381 374.916 462.521C365.231 466.696 354.822 468.81 343.963 468.81C314.538 468.81 280.99 453.605 244.249 423.604C184.746 375.033 138.535 291.26 126.504 210.178C122.734 184.789 122.575 151.978 143.212 139.763C149.641 135.963 157.06 134.03 165.282 134.03C193.363 134.03 226.622 156.237 248.627 170.929C251.104 172.585 253.464 174.155 255.686 175.618C268.434 183.989 281.608 192.112 294.356 199.959C320.175 215.859 346.857 232.3 370.912 251.467C388.178 265.219 402.527 281.672 416.086 303.218C428.238 322.545 427.49 346.727 426.763 370.111C426.711 371.978 426.645 373.848 426.593 375.696ZM343.963 477.682H343.975C356.016 477.671 367.601 475.323 378.386 470.667C417.508 453.808 430.864 404.63 435.338 376.815L435.39 376.229C435.445 374.296 435.497 372.353 435.561 370.388C436.297 346.814 437.12 320.099 423.527 298.478C409.423 276.055 394.445 258.908 376.378 244.516C351.908 225.019 324.99 208.438 298.96 192.4C286.264 184.574 273.131 176.493 260.501 168.196C258.29 166.745 255.952 165.185 253.496 163.541C230.605 148.262 196.022 125.167 165.282 125.167C155.471 125.167 146.545 127.506 138.749 132.118C118.783 143.938 111.737 170.641 117.79 211.481C130.133 294.634 177.593 380.607 238.708 430.489C277.049 461.805 312.465 477.682 343.963 477.682Z" fill="#580A88"/>
<path class="line11" fill-rule="evenodd" clip-rule="evenodd" d="M224.774 234.085C246.311 234.085 275.756 249.171 286.852 254.852C313.234 268.367 373.752 306.262 365.786 366.053C357.778 395.287 337.182 401.449 321.316 401.449C306.167 401.459 288.197 395.682 272 385.603C251.082 372.589 233.123 353.603 220.067 330.69C213.338 318.882 192.134 278.086 201.605 248.777C204.755 239.029 212.548 234.085 224.774 234.085ZM321.316 403.668C337.952 403.668 359.53 397.22 367.933 366.492C376.122 305.151 314.653 266.607 287.844 252.877C276.633 247.133 246.844 231.874 224.774 231.874C211.481 231.874 202.982 237.33 199.501 248.093C189.753 278.267 211.322 319.789 218.155 331.79C231.393 355.023 249.608 374.285 270.845 387.493C287.374 397.774 305.77 403.668 321.316 403.668Z" fill="#580A88"/>
<path class="line12" d="M272.377 1143.58C273.029 1146.18 273.701 1148.79 274.386 1151.41C291.375 1210.06 315.375 1234.06 362.375 1259.06C401.236 1280.59 415.5 1289.5 439.5 1319C465.437 1357.45 524 1399 524 1399L525.5 1398C525.5 1398 467.437 1356.95 441.5 1318.5C417.5 1289 403.361 1280.03 364.5 1258.5C317.5 1233.5 293.5 1209.5 276.511 1150.85C275.84 1148.23 275.166 1145.63 274.513 1143.04C256.194 1070.02 260.053 1010.74 286.315 961.785C311.699 914.476 355.606 885.066 398.082 856.619L398.262 856.499C441.823 827.299 486.852 797.116 512.328 747.485C516.7 738.964 520.537 730.186 524 721.237V715C520.055 725.763 515.588 736.316 510.372 746.459C485.118 795.64 440.255 825.69 396.865 854.754L396.852 854.763C354.163 883.36 310.02 912.937 284.379 960.736C257.841 1010.2 253.918 1070.01 272.377 1143.58Z" fill="#580A88"/>
<path class="line13" fill-rule="evenodd" clip-rule="evenodd" d="M355.648 983.27C377.514 937.098 419.157 907.565 459.423 879.011C481.725 863.188 504.445 847.065 524 828V831.029C504.692 849.581 482.495 865.341 460.695 880.802C420.655 909.208 379.254 938.574 357.636 984.213C312.881 1078.72 410.004 1165.73 474.273 1223.3L482.068 1230.33C496.607 1243.39 511.009 1257.24 524 1272.55V1276C510.646 1259.99 495.709 1245.55 480.603 1231.97L472.808 1224.97C408.048 1166.95 310.188 1079.27 355.648 983.27Z" fill="#580A88"/>
<path class="line14" fill-rule="evenodd" clip-rule="evenodd" d="M419.154 1024.23C421.316 984.044 446.82 954.607 468.8 933.462C485.383 917.518 503.892 902.642 524 889V891.697C504.468 905.041 486.468 919.531 470.311 935.073C448.629 955.956 423.455 984.937 421.347 1024.36C419.431 1060.14 436.068 1090.48 450.364 1109.61C471.023 1137.27 497.87 1159.61 524 1181.14V1184C497.326 1162.05 469.79 1139.3 448.618 1110.93C434.099 1091.5 417.208 1060.7 419.154 1024.23Z" fill="#580A88"/>
</svg>
